<?xml version="1.0" encoding="utf-8"?>
<!-- Generator: Adobe Illustrator 23.0.1, SVG Export Plug-In . SVG Version: 6.00 Build 0)  -->
<svg version="1.1" id="Layer_1" xmlns:sketch="http://www.bohemiancoding.com/sketch/ns"
	 xmlns="http://www.w3.org/2000/svg" xmlns:xlink="http://www.w3.org/1999/xlink" x="0px" y="0px" viewBox="0 0 30 30"
	 style="enable-background:new 0 0 30 30;" xml:space="preserve">
<style type="text/css">
	.st0{fill-rule:evenodd;clip-rule:evenodd;fill:#FFFFFF;stroke:#000000;stroke-miterlimit:10;}
</style>
<title>UserNamesvg</title>
<desc>Created with Sketch.</desc>
<g id="Page-1" sketch:type="MSPage">
	<g id="SignIn01" transform="translate(-33.000000, -164.000000)" sketch:type="MSArtboardGroup">
		<g id="UN" transform="translate(30.000000, 161.000000)" sketch:type="MSLayerGroup">
			<g id="UserNamesvg" sketch:type="MSShapeGroup">
				<g>
					<path id="Shape" class="st0" d="M18,4.7C10.7,4.7,4.7,10.7,4.7,18S10.7,31.3,18,31.3S31.3,25.3,31.3,18c0-3.5-1.4-6.9-3.9-9.4
						S21.5,4.7,18,4.7L18,4.7z M18,8.7c2.2,0,4,1.8,4,4s-1.8,4-4,4s-4-1.8-4-4S15.8,8.7,18,8.7L18,8.7z M18,27.6
						c-3.2,0-6.2-1.6-8-4.3c0-2.7,5.3-4.1,8-4.1s8,1.4,8,4.1C24.2,26,21.2,27.6,18,27.6L18,27.6z"/>
				</g>
			</g>
		</g>
	</g>
</g>
</svg>
