<svg xmlns="http://www.w3.org/2000/svg" xmlns:xlink="http://www.w3.org/1999/xlink" width="36" height="36" viewBox="0 0 36 36">
  <defs>
    <clipPath id="clip-path">
      <rect width="36" height="36" fill="none"/>
    </clipPath>
    <clipPath id="clip-path-2">
      <path id="path" d="M0,0H36V36H0Z" fill="#fff"/>
    </clipPath>
  </defs>
  <g id="Password" clip-path="url(#clip-path)">
    <g id="group" clip-path="url(#clip-path-2)">
      <path id="path-2" data-name="path" d="M16,25a3,3,0,1,0-3-3A3.009,3.009,0,0,0,16,25Zm9-13.5H23.5v-3a7.5,7.5,0,0,0-15,0v3H7a3.009,3.009,0,0,0-3,3v15a3.009,3.009,0,0,0,3,3H25a3.009,3.009,0,0,0,3-3v-15A3.009,3.009,0,0,0,25,11.5Zm-13.65-3a4.65,4.65,0,0,1,9.3,0v3h-9.3ZM25,29.5H7v-15H25Z" transform="translate(2 0.5)" fill="#fff"/>
    </g>
  </g>
</svg>
