<svg xmlns="http://www.w3.org/2000/svg" width="23.039" height="23.064" viewBox="0 0 23.039 23.064">
  <path id="Search" d="M204.355,739.367a6.879,6.879,0,0,1,5.319,5.281,7.038,7.038,0,0,1-7.865,8.574,7.061,7.061,0,1,1,2.546-13.855ZM212,746.738a8.238,8.238,0,0,0-.22-2.31,9.29,9.29,0,0,0-18.393,1.87,8.675,8.675,0,0,0,1.886,5.5c-1.886,1.863-4.549,4.393-4.769,4.613a1.642,1.642,0,0,0-.11,2.2,1.67,1.67,0,0,0,2.216-.11l4.761-4.731a9.513,9.513,0,0,0,5.547,1.76A9.191,9.191,0,0,0,212,746.738Z" transform="translate(-189.461 -736.482)" fill="#fff" stroke="rgba(0,0,0,0)" stroke-width="1"/>
</svg>
