<svg id="Share" xmlns="http://www.w3.org/2000/svg" width="19" height="27.4" viewBox="0 0 19 27.4">
  <path id="path" d="M18,8.4H14.5a.945.945,0,0,0-1,1,.945.945,0,0,0,1,1H17v15H2v-15H4.5a.945.945,0,0,0,1-1,.945.945,0,0,0-1-1H1a.945.945,0,0,0-1,1v17a.945.945,0,0,0,1,1H18a.945.945,0,0,0,1-1V9.4A.945.945,0,0,0,18,8.4Z" fill="#fff"/>
  <path id="path-2" data-name="path" d="M6.2,5.7,8.5,3.4V15.8a.945.945,0,0,0,1,1,.945.945,0,0,0,1-1V3.4l2.3,2.3a.967.967,0,0,0,1.4,0,.967.967,0,0,0,0-1.4l-4-4A.967.967,0,0,0,8.8.3l-4,4A.99.99,0,0,0,6.2,5.7Z" fill="#fff"/>
</svg>
